<?xml version="1.0" standalone="no"?>
<!DOCTYPE svg PUBLIC "-//W3C//DTD SVG 20010904//EN"
 "http://www.w3.org/TR/2001/REC-SVG-20010904/DTD/svg10.dtd">
<svg version="1.0" xmlns="http://www.w3.org/2000/svg"
 width="700.000000pt" height="700.000000pt" viewBox="0 0 700.000000 700.000000"
 preserveAspectRatio="xMidYMid meet">
<metadata>
Created by potrace 1.11, written by Peter Selinger 2001-2013
</metadata>
<g transform="translate(0.000000,700.000000) scale(0.100000,-0.100000)"
fill="#000000" stroke="none">
<path d="M1490 4953 c-220 -11 -421 -26 -514 -38 -125 -16 -168 -38 -213 -107
-28 -42 -28 -43 -27 -207 3 -502 200 -1036 492 -1337 247 -254 541 -366 922
-351 387 15 728 166 1011 447 109 109 233 266 297 377 20 34 39 63 42 63 3 0
22 -29 42 -64 68 -115 189 -269 297 -376 285 -282 624 -432 1011 -447 380 -15
668 94 919 349 294 299 492 835 495 1339 1 164 1 165 -27 207 -46 70 -88 91
-218 107 -430 54 -1106 58 -1539 9 -373 -42 -707 -127 -918 -233 l-60 -30 -94
43 c-284 134 -688 216 -1203 246 -153 9 -574 11 -715 3z"/>
<path d="M5335 2236 c-39 -20 -69 -49 -133 -130 -291 -366 -705 -628 -1163
-736 -120 -28 -280 -50 -370 -50 -157 0 -241 -35 -287 -117 -35 -63 -39 -129
-13 -189 37 -83 96 -128 183 -140 59 -8 318 13 452 37 425 76 823 257 1156
526 170 137 405 390 468 506 20 35 23 53 20 108 -6 119 -82 197 -200 206 -53
4 -71 1 -113 -21z"/>
</g>
</svg>
