
<svg id="color" enable-background="new 0 0 24 24" height="512" viewBox="0 0 24 24" width="512" xmlns="http://www.w3.org/2000/svg"><circle cx="12" cy="12" fill="#ffd54f" r="12"/><path d="m12.25 21c-.414 0-.75-.336-.75-.75s.336-.75.75-.75c2.269 0 4.425-1.098 5.767-2.937.244-.335.712-.408 1.048-.164.334.244.408.713.164 1.048-1.624 2.225-4.232 3.553-6.979 3.553z" fill="#6d4c41"/><path d="m20.842 7.175c-.252-.031-5.922-.708-8.842.851-2.92-1.558-8.59-.882-8.842-.851-.376.047-.658.366-.658.744 0 2.109.97 6.097 4.639 6.097 2.462 0 4.013-1.559 4.861-3.087.848 1.528 2.4 3.087 4.861 3.087 3.669 0 4.639-3.988 4.639-6.097 0-.378-.282-.697-.658-.744z" fill="#455a64"/></svg>
