<svg height="100%" viewBox="0 -1 512.001 512" width="100%" xmlns="http://www.w3.org/2000/svg"><path d="m493.878906 298.023438c2.640625-14.386719 4.027344-29.109376 4.027344-43.828126 0-32.636718-6.386719-64.296874-19.011719-94.105468-12.179687-28.792969-29.605469-54.648438-51.820312-76.847656-22.183594-22.203126-48.058594-39.625-76.835938-51.804688-29.796875-12.609375-61.460937-19-94.09375-19-15.382812 0-30.789062 1.445312-45.78125 4.324219-.03125.007812-.074219.007812-.113281.015625-20.570312-10.9375-43.703125-16.777344-67.121094-16.777344-38.230468 0-74.175781 14.886719-101.207031 41.929688-27.027344 27.03125-41.921875 62.976562-41.921875 101.207031 0 24.332031 6.261719 48.253906 18.007812 69.390625-2.382812 13.695312-3.640624 27.691406-3.640624 41.667968 0 32.644532 6.390624 64.300782 19.015624 94.113282 12.160157 28.800781 29.59375 54.640625 51.789063 76.84375 22.214844 22.199218 48.054687 39.648437 76.863281 51.796875 29.800782 12.632812 61.472656 19.027343 94.105469 19.027343 14.207031 0 28.445313-1.296874 42.34375-3.761718 21.414063 12.113281 45.65625 18.550781 70.414063 18.550781 38.222656 0 74.148437-14.859375 101.183593-41.910156 27.039063-27.015625 41.917969-62.96875 41.917969-101.199219 0-24.414062-6.292969-48.414062-18.121094-69.632812zm0 0" fill="#00aff0"/><path d="m257.105469 402.261719c-85.890625 0-124.316407-42.226563-124.316407-73.875 0-16.230469 11.984376-27.609375 28.5-27.609375 36.757813 0 27.238282 52.777344 95.816407 52.777344 35.109375 0 54.496093-19.0625 54.496093-38.570313 0-11.734375-5.789062-24.738281-28.90625-30.4375l-76.394531-19.070313c-61.527343-15.429687-72.691406-48.691406-72.691406-79.957031 0-64.914062 61.121094-89.289062 118.519531-89.289062 52.875 0 115.203125 29.222656 115.203125 68.167969 0 16.6875-14.449219 26.390624-30.960937 26.390624-31.367188 0-25.597656-43.417968-88.785156-43.417968-31.355469 0-48.722657 14.199218-48.722657 34.515625 0 20.28125 24.765625 26.757812 46.265625 31.65625l56.546875 12.550781c61.941407 13.800781 77.644531 49.964844 77.644531 84.027344.003907 52.75-40.488281 92.140625-122.214843 92.140625zm0 0" fill="#fff"/></svg>
