<?xml version="1.0" encoding="utf-8"?>
<!-- Generator: Adobe Illustrator 21.1.0, SVG Export Plug-In . SVG Version: 6.00 Build 0)  -->
<svg width="350px" height="42px" version="1.1" id="Laag_1" xmlns="http://www.w3.org/2000/svg" xmlns:xlink="http://www.w3.org/1999/xlink" x="0px" y="0px"
	 viewBox="0 0 350.2 42.2" style="enable-background:new 0 0 350.2 42.2;" xml:space="preserve">
<style type="text/css">
	.st0{fill:#EF7D00;}
	.st1{fill:#020203;}
	.st2{fill:#FFFFFF;}
	.st3{fill:#575756;}
</style>
<polygon class="st0" points="26.2,8.5 0,8.5 0,33.7 26.8,33.7 29.9,42.2 53.3,33.7 191.2,33.7 191.2,8.5 52.8,8.5 49.7,0 "/>
<g>
	<path class="st1" d="M25.6,26.3C25.6,26.3,25.6,26.3,25.6,26.3C25.6,26.3,25.6,26.3,25.6,26.3L25.6,26.3z"/>
	<path class="st2" d="M91.2,28.5h2.6c4.6-0.1,7.8-2.8,7.9-7.7c-0.1-4-2.9-7.1-7-7h-3.4V28.5z M87.2,32l0.2-21.5h7
		c6.8-0.1,11.3,4.1,11.3,10.7c0,6.4-5.4,10.8-11.1,10.9H87.2z"/>
	<polygon class="st2" points="113.8,32 117.8,32 118.1,10.4 114,10.4 	"/>
	<polygon class="st2" points="127,32 131,32 130.6,16 130.8,16 140.6,32.4 144.7,31.1 144.9,10.4 140.8,10.4 141.1,26.4 130.8,9.8 
		127.2,11.1 	"/>
	<path class="st2" d="M164.7,23l-2.6-8.5l-2.8,8.5H164.7z M158.3,26.2l-2.6,6.2l-3.6-1.3l8.3-20.7h3.6l7.7,20.7l-3.8,1.3l-2.1-6.2
		H158.3z"/>
	<path class="st2" d="M25.6,26.3C25.6,26.3,25.6,26.3,25.6,26.3C25.6,26.3,25.6,26.3,25.6,26.3L25.6,26.3z M35.2,30.8
		c-2.5-1.2-4.5-3.3-5.4-5.9l0,0c-1-2.7-0.9-5.5,0.3-8.1c1.2-2.6,3.3-4.6,6.1-5.6c5.5-1.9,11.6,0.9,13.5,6.3c1,2.7,0.9,5.7-0.3,8.3
		c-1.2,2.6-3.3,4.5-6,5.5C40.7,32.1,37.8,32,35.2,30.8 M34.7,6.8c-3.9,1.4-6.9,4.3-8.6,8c-0.9,2-1.4,4.1-1.4,6.2
		c0,1.8,0.3,3.6,1,5.3c1.3,3.8,4.1,6.8,7.7,8.5c3.7,1.7,7.8,1.9,11.6,0.5c3.8-1.4,6.8-4.2,8.6-7.8c1.7-3.7,1.9-7.8,0.5-11.7
		C51.1,8.1,42.5,4.1,34.7,6.8"/>
	<path class="st2" d="M68,20h2.3c1.2,0,3.6-0.5,3.6-3.4c0-2-1.7-3-3.6-3H68V20z M63.7,32l0.2-21.5h6.8c5.2,0,7.4,2.8,7.5,6.2
		c-0.1,2.7-1.7,4.7-4.3,5.5l6.6,8.7l-4.1,1.5l-6-8.3c-0.4-0.5-0.8-0.8-1.5-0.9h-1.3V32H63.7z"/>
</g>
</svg>
