<svg version="1" xmlns="http://www.w3.org/2000/svg" width="682.667" height="682.667" viewBox="0 0 512.000000 512.000000"><path d="M0 104.2v104.1l28.4-.7c15.6-.4 29.6-.4 31.2 0l2.9.8-2.5.7c-1.4.4-8.6.7-16.1.8-7.5.1-20.4.4-28.7.8l-15.2.6V352h29.3c16 0 29.7-.4 30.3-.8.6-.4 1.8-3.6 2.8-7.2 3.8-13.9 12.1-23.9 29.1-35.1 9.8-6.5 33-18.9 35.2-18.9.7 0 1.5 1 1.8 2.2.4 1.3 1.5 4.2 2.6 6.5 1 2.4 1.9 4.9 1.9 5.6 0 .7.8 2.8 1.9 4.7 3.9 7.4 7 18.8 8.3 30.5l1.4 12 22.9.3c26.2.3 29.5 0 29.5-2.9 0-1.1-1.1-2.4-2.5-3.1-2.6-1.2-9.1-12.9-13.5-24.3-1.3-3.3-2.7-6.5-3.1-7-.4-.6-1.7-3.7-3-6.9-1.2-3.3-3-7.3-4-9-2.7-4.6-8.1-21.3-7.7-23.9.2-1.6 2.1-3.1 6.7-5.3l6.4-3.2 3.3 2c2.3 1.4 3.7 3.1 4.4 5.6 1.7 6.3 2.6 6.9 4.1 2.9l1.2-3.5 4.4 3.5c2.3 1.9 4 3.9 3.7 4.4-.3.5.2.9 1 .9s2 .9 2.6 2c.6 1.1 2 2 3 2 1.1 0 2 .4 2 1 0 .5 1.2 1 2.6 1 2.1 0 2.4.4 1.9 2-.4 1.4-.2 2 .8 2 .8 0 2.2 1.1 3.1 2.5.9 1.4 2.4 2.4 3.3 2.3 1.2-.2 2 .8 2.8 3.5.6 2.2 2 4.6 3.2 5.5 1.2 1 2.2 3 2.3 4.7.3 4.4.1 5.2-1 3.5-.7-1.2-1.2-1.2-2.9.4-1.1 1-2.5 1.5-3.2 1-.9-.5-1-.2-.6 1.1.4.9.2 2.3-.4 3.1-1.3 1.6-.5 4.4 2.2 7.3 2.6 2.7 1.9 3.5-2.7 3.4-2.9-.1-3.4.2-2.9 1.7.7 2.3-2.3 5-3.5 3.1-.4-.8-1.3-1-1.9-.7-.6.4-1.1.2-1.1-.3 0-.6-1.1-1.1-2.5-1.1-1.8 0-2.5.5-2.5 1.9 0 1.1-.3 2.6-.6 3.5-.5 1.3.1 1.6 2.5 1.6 1.7 0 3.1.4 3.1 1 0 .5.9 1 2 1 1.3 0 2.4 1 3 2.6 1.3 3.4 1.3 4.1-.2 2.6-1.9-1.9-3-1.4-2.6 1l.3 2.3H246c23.2 0 35.4-.3 35.2-1-.1-.6-1.2-1-2.5-1.1-1.2 0-2.8-.1-3.5-.2-2.2-.3-7-12-7.7-18.6-.4-3.3-.1-14.7.5-25.1.6-10.5 1.5-25.7 2-33.9 1-17 1.8-19.1 8.8-21.6 4.2-1.4 5.5-3 2.6-3-1.2 0-1.4-.7-.9-3.3.9-4.1 1.2-4.4 3.5-2.9 1.1.7 3.5 1.2 5.4 1.2 1.9 0 3.8.5 4.2 1.1.4.7 2.3.8 5.3.4 5.5-.8 9.5-4.6 11.1-10.3.5-2.1 2.1-4.9 3.5-6.2l2.5-2.4-.6 3.2c-.4 1.7-.3 6.5.1 10.7.6 7 .8 7.5 3 7.5 1.6 0 3-1.2 4.6-3.8 1.8-2.9 2.4-3.3 2.7-1.9.2 1-.4 2.9-1.2 4.2-1.6 2.4-1.6 2.5.8 2.5 1.3 0 2.7-.7 3-1.6.5-1.3.9-1.4 2.2-.4 1.1 1 1.8 1 2.6.2 1.4-1.4 5.2-1.6 4.3-.3-.7 1.3 5.7 2.5 8.4 1.6 1.4-.4 3.4.1 5.6 1.4 2.5 1.4 4.4 1.8 7.1 1.4 3.3-.5 3.6-.4 3 1.5-.5 1.5-.2 2.2 1.4 2.7 2 .6 2.8 2.5 1 2.5-1.8 0-1 3.8 1.5 7.6 1.4 2 2.2 4 1.9 4.5-.2.5.4 2.8 1.5 5.3 1.2 2.4 2.4 7 2.7 10.3.4 3.2 1.2 6.4 1.8 7.2.8 1.1.8 1.5-.1 1.8-.7.3-1.3 1.7-1.2 3.1 0 1.5.3 2.1.6 1.4 1-2.6 2.3-1 2.3 2.8 0 5.1 4.4 10 9 10 2.5 0 3 .4 3 2.4 0 3.6 1.7 4.1 2.8.9 1.6-4.2 1.5.2-.1 5.2-3.3 10.9-12.7 18.7-18.7 15.5-3.1-1.6-5 .3-5 5.2 0 3.1-.7 4.6-3.5 7.3-1.9 1.9-3.9 3.5-4.5 3.5-.5 0-1 .4-1 .9 0 1.4 6.7 1.9 20.5 1.5 16.8-.5 24.2-1.3 22.4-2.4-1.1-.7-1.1-1.2.3-2.7.8-1 1.4-2.9 1.3-4.3-.3-2.4 4.1-10.3 5.4-9.7.3.2 1.6-.7 2.8-2 1.2-1.3 2-2.3 1.7-2.3-.2 0 .3-1.4 1.1-3.1.9-1.7 1.4-3.7 1.1-4.4-.6-1.8 3.1-6.5 5.2-6.5 2.8 0 9.2 5.2 11.1 8.9 1 2 3.2 6.1 4.9 9.1 1.8 3 4.1 8.3 5.3 11.8 1.1 3.4 2.9 6.7 3.9 7.2 1.1.6 15 1 34.9 1H512V0H0v104.2zm199.8-15c2.3 2.3 13.3 3.6 26.7 3.1 9.7-.4 14.7-.1 19.5 1 3.6.9 9.7 2.1 13.5 2.8 11.5 2 17.5 6.2 17.5 12 0 1.3.5 3.7 1.2 5.5.9 2.6.9 3.8-.1 5.7-2.9 5.5-1.5 24.8 2.1 29.6 2.4 3.2 2.3 8.3-.4 14.1-1.9 4.1-2.8 5-5.8 5.5-3.1.7-3.3.8-1.3 1.6 2.1.8 2.1.9.7 6.1-2.2 7.7-2.2 8-2.3 11-.1 2.5-.4 2.7-3.1 2.2-2.5-.6-3-.3-3.6 2-.4 1.5-1.5 2.8-2.8 3.2-1.8.4-2.2 1.2-2.1 3.7.1 1.8 1 4.9 1.9 6.9 2.2 5.1 2 8.9-.7 12.9-3.8 5.7-4.8 3.6-3.2-7.3.6-3.8.3-5.3-1.5-8.6-1.2-2.2-3.4-4.6-4.8-5.3-1.4-.8-6.4-4.4-11.1-8.1-4.7-3.7-9.8-7.6-11.3-8.7-1.4-1.2-3.4-2.1-4.4-2.1-1.6 0-1.6.1 0 1.9 2 2.2 3.7 7.7 3 9.6-.3.7-3.6 2.3-7.3 3.4-3.9 1.2-7.9 3.2-9.4 4.6-2.4 2.4-2.9 2.5-6.6 1.5-2.2-.6-4.3-1.5-4.6-2-1.4-2.2-6-1-8 2-1.1 1.6-2.5 3-3.2 3-2.4 0-2.4-2.2.1-5.9 2.6-3.7 3.4-7.1 1.7-7.1-1.5 0-7.6 8-10.4 13.6-2 4-2.4 5.8-1.8 8.5.7 3 7 15.8 9.1 18.4.4.5 1.1 2.5 1.5 4.4l.7 3.4-3.2-2.3c-1.7-1.2-3.6-3.3-4.1-4.6-1.2-3.2-3.9-4.2-5.1-2-.9 1.6-1.1 1.6-3-.1-2.3-2-4.7-7.1-5.9-12.3-.4-1.9-1.4-6.2-2.4-9.5-1.9-7.1-2-28.2-.2-31.2.7-1.1 7-1 15.4.2 6.4.9 14.4-1.6 17.9-5.8 3.5-4.2 3.3-10.1-.6-15.4l-3-4-8.8-.5c-11.1-.7-16.8.2-16.4 2.4.1 1-.7 1.7-2.5 2.1-3.4.6-4.7-.1-3.3-1.8.7-.8.8-4.1.4-9.4-.5-5.9-.3-8.5.6-9.6.8-1 1.1-3.4.8-7.3-.5-5.6.4-9.4 2.9-12 .7-.7 1.3-2.9 1.3-4.8s.5-3.4 1-3.4c.6 0 1-.7 1-1.4 0-1.4 5.7-10.6 6.5-10.6 1.7 0 17.2-4.4 18-5.1 1.2-1.2 1.9-1.1 3.3.3zm-20.9 68.7c1.1.7.2 1.5-3.5 3.4-2.8 1.4-6.1 4.2-7.7 6.3-2.3 3.4-2.7 3.6-2.7 1.6 0-2.7 4.2-9.6 6.7-11.1 2.2-1.3 5.3-1.4 7.2-.2zm4.9 10.8c-.4 2.3-5.3 4.6-7.8 3.8-2.7-.9-2.5-1.7.8-3.7 3.7-2.4 7.5-2.4 7-.1zm52.8 19.8c.4.8 1.4 1.5 2.4 1.5 1.8 0 3.6 2.8 2.5 3.8-1 1-9.5-3.7-9.5-5.3 0-2 3.9-2 4.6 0zm35.5 10.4c1 2.4 1.3 4.4.8 5.2-.5.8-.9 2.6-.9 4.1 0 3.4-.9 5.8-2.2 5.8-.6 0-.8-2.7-.7-6.4.2-3.6 0-6.8-.4-7.2-1.2-1.2-.8-5.4.6-5.4.6 0 1.9 1.8 2.8 3.9zM144 207c0 .5-.5 1-1.1 1-.5 0-.7-.5-.4-1 .3-.6.8-1 1.1-1 .2 0 .4.4.4 1zm-64 1c0 .5-.7 1-1.6 1-.8 0-1.2-.5-.9-1 .3-.6 1-1 1.6-1 .5 0 .9.4.9 1zm9 0c0 .5-.4 1-1 1-.5 0-1-.5-1-1 0-.6.5-1 1-1 .6 0 1 .4 1 1zm17 0c-2 1.3-15 1.3-15 0 0-.6 3.4-1 8.3-1 5.6 0 7.7.3 6.7 1zm25.3-.3c-4 .2-10.7.2-15 0-4.3-.1-1-.3 7.2-.3 8.3 0 11.8.2 7.8.3zm-59 1c-1.3.2-3.5.2-5 0-1.6-.2-.5-.4 2.2-.4 2.8 0 4 .2 2.8.4zm140.2 3.3c-.3.5-1.5 1-2.6 1-1 0-1.9-.5-1.9-1 0-.6 1.2-1 2.6-1 1.4 0 2.3.4 1.9 1zm21.5 3c0 .5.9.6 2 .3 1.5-.4 2 0 2 1.6 0 1.4-.6 2.1-1.9 2.1-1.1 0-2.3.5-2.6 1.1-.4.6-1.3.8-2.1.5-.8-.3-2.2-.1-3.2.4-2.3 1.3-19.2 2.7-25 2-4.2-.4-4.7-.8-4.7-2.9 0-2 .6-2.5 3-2.7 21.2-1.8 26.7-2.4 28.3-3.3 1.7-1 4.2-.4 4.2.9zm78.2.2c-.7.7-1.2.8-1.2.2 0-.6.3-1.4.7-1.7.3-.4.9-.5 1.2-.2.2.3-.1 1.1-.7 1.7zm-3.2 7.2c0 .3-.4.8-1 1.1-.5.3-1 .1-1-.4 0-.6.5-1.1 1-1.1.6 0 1 .2 1 .4zm-111 10.7c2.7 5.6 5.2 7.9 8.7 7.9 3 0 2.9-.9-.4-3.7-2.8-2.3-2.8-2.3-.8-3.8 1.2-1 3-1.3 4.6-1 1.4.3 5.9-.1 9.8-1.1 8.1-1.8 10.2-1.1 7.9 2.5-.7 1.2-2.2 2.4-3.3 2.7-1.1.4-3.2 2-4.7 3.7-1.6 1.7-2.8 2.7-2.8 2.3 0-.5-.6-.4-1.3.2-.7.6-3.9 1-7.2 1-6.4-.2-8.2 1.3-4.7 3.7 1 .8 2.5 2.7 3.1 4.4 1.4 3.3 4.6 4.3 12.6 4.1 3.1 0 5.3-.6 5.8-1.5.5-1 1.7-1.2 3.7-.8 2.3.4 3 .2 3-1 0-.9 1.6-1.9 4.4-2.6 3.8-.9 4.5-1.6 5.1-4.1.5-2.1 1.3-3 2.6-3 2.7 0 2.4 3.2-.5 6.1-1.3 1.3-2.6 3.4-3 4.6-.4 1.3-1.3 2.3-2.1 2.3-.7 0-1.5.7-1.9 1.5-.7 2-3.2 1.9-4-.2-.6-1.5-.8-1.5-1.6-.3-1.2 1.9-1.3 3.3-.1 2.6.5-.3 1.1.3 1.4 1.4.6 2.4-.8 3.4-5 3.6-3.1.1-4.8-1.9-4.4-5.2.1-.6-1.3-1.1-2.9-1.2-2.9-.1-3.1.1-2.8 3.6.2 2.7-.1 3.7-1.3 4-1.2.2-1.5-.4-1.2-3 .4-3.1.3-3.2-1.1-1.4-1.3 1.6-1.8 1.7-3.2.5-.9-.7-2-2.3-2.5-3.6-.5-1.3-1.6-2.3-2.6-2.3s-3-1.5-4.4-3.3c-2-2.5-2.4-3.8-1.8-6 .6-2.2 0-4.2-2.7-9.1-1.9-3.5-3.4-7.1-3.4-8 0-3.3 2.7-1.4 5 3.5zm46-4.1c0 .5-.4 1-1 1-.5 0-1 1.3-1 3 0 2.3-.5 3-1.9 3-1.1 0-3.2 1.1-4.8 2.4-2.9 2.4-9.3 4.4-9.3 2.9 0-.5 1.5-1.7 3.3-2.6 1.9-1 5.3-3.8 7.7-6.3 4-4.2 7-5.6 7-3.4zm85.9 3.2c-.8 1.4-1.4 1.8-1.7 1-.4-1.3 1.7-4.6 2.5-3.8.3.2-.1 1.5-.8 2.8z"/><path d="M236 144c-6.8.7-19 4.9-19.7 6.7-.3.8-.1 1.9.6 2.6 1.7 1.7 1.3 2.7-.9 2.7-2.8 0-2.5 1.9.5 3s3.2 2.6.5 4c-2.8 1.5-2.6 4 .4 4 1.3 0 2.6.7 3 1.5.3.8 1.5 1.5 2.6 1.5 1.7 0 2-.4 1.5-2.2-.6-1.8-.4-2 1.1-1.3 5.1 2 8.5 2.2 16.3.5 4.5-1 8.8-2.3 9.5-2.9.8-.6 4.4-1 8.3-.9 7.4.2 9.5-.5 8.7-2.6-.3-.8 0-1.7.6-2.1.8-.5.8-1 0-2-.7-.8-.9-1.9-.5-2.5.3-.5.1-1-.5-1s-.8-1-.4-2.5c.8-3.1.1-3.2-2.7-.4-1.2 1.2-2.4 1.7-2.8 1.2-.3-.6-2.1-.9-3.8-.8-2.6.1-3.3-.2-3.3-1.6 0-3.7-8.7-5.9-19-4.9zm10.6 6.1c2.5.7 4.4 1.7 4.4 2.5s.9 1.4 2 1.4c1.3 0 1.8.5 1.4 1.5-.4 1 0 1.5 1.2 1.5 1.8.1 1.8.1 0 1.1-1 .6-2.1.7-2.5.3-.8-1.1-2.6-1.4-13.3-2.1-8.6-.5-8.6-.5-7.6-2.9 1.8-4 7-5.1 14.4-3.3zM312 236.1c0 1.1.5 1.7 1 1.4.6-.3 1-1.3 1-2.1s-.4-1.4-1-1.4c-.5 0-1 .9-1 2.1zM319.3 296c-1.3.5-2.3 1.8-2.3 2.9 0 2 .5 2 11.7 1.6 6.4-.3 11.8-.7 12-.9.2-.2-1.5-1.1-3.9-1.9-5.5-2-14.7-2.9-17.5-1.7zM277.8 298.6c-1.6.8-2.8 1.8-2.8 2.2 0 1.1 18.9 1.1 19.6 0 2.1-3.3-11.5-5.2-16.8-2.2zM199.5 299c.3.5.8 1 1.1 1 .2 0 .4-.5.4-1 0-.6-.5-1-1.1-1-.5 0-.7.4-.4 1zM218 309.5c0 .9.5 1.5 1.1 1.3.6-.2 1.1-.8 1.1-1.3s-.5-1.1-1.1-1.3c-.6-.2-1.1.4-1.1 1.3zM374.6 312.5c-.9 1.3-1.6 3.2-1.6 4 0 .9-.5 2.5-1.1 3.7-1.5 2.7-.4 3.4 2.4 1.5 1.3-.8 3.9-1.7 5.8-1.9 4.5-.4 5.1-3.7 1.3-7.3-3.4-3.1-4.7-3.1-6.8 0zM304.6 321.6c-.3.9-.6 1.7-.6 1.8 0 .7 11 0 11.7-.8.4-.5-.2-.5-1.4-.2-1.7.6-2.3.3-2.3-.8 0-2.2-6.6-2.2-7.4 0zM294 323c0 2.3.9 2.5 4.4.9 3.2-1.5 2.4-2.9-1.5-2.9-2.2 0-2.9.5-2.9 2zM291.8 335.4c-2.6 1.1-4.8 2.4-4.8 2.8 0 .5 3.7.8 8.3.8 4.5 0 10.9 0 14.2.1 9.4.3 12.5 0 12.5-1.1 0-.6-1.1-1-2.5-1s-4.2-.7-6.2-1.5c-6.2-2.6-16-2.7-21.5-.1zM413 336c0 .5.5 1 1 1 .6 0 1-.5 1-1 0-.6-.4-1-1-1-.5 0-1 .4-1 1zM297.7 341.8c-.9.2-1.7 1-1.7 1.8s-.7 1.4-1.6 1.4c-3.2 0-.2 1.9 4.1 2.6 6.3.9 12.1-.6 11.7-3.2-.2-1-.6-2.1-.7-2.3-.5-.5-9.7-.7-11.8-.3zM203.7 348.4c-.7 1.6.1 2.6 2 2.6.7 0 1.3-.9 1.3-2 0-2.3-2.5-2.7-3.3-.6zM133.5 384c-6.6 3.9-11.9 7.5-11.8 8 .2.6-.6 1-1.6 1-2.5 0-3.3 1.2-1.9 3 .8 1.2.9 1.1.4-.3-.5-1.5-.1-1.8 1.7-1.5 1.3.2 2.1.9 1.9 1.8-.3 1.2-.1 1.2.9.3 1.5-1.5 6.9 1 6.9 3.2 0 .7.5 1.7 1.2 2.1.7.5.9.2.6-.7-.4-1.1.2-1.6 2.3-1.7 1.6-.1 6.8-2.6 11.6-5.5 10.1-6 11.9-9 8.6-13.6-3.6-4.7-7.2-4-20.8 3.9zM173.8 378.1c-5.4 3.1-4.2 9.2 2.5 12.9 2.3 1.3 9.4 5.4 15.7 9.2 6.3 3.7 12.5 6.8 13.8 6.8 4.5 0 7.9-6.7 5.4-10.7-1.1-1.8-32-19.3-33.9-19.3-1 0-2.6.5-3.5 1.1zM240.4 385.3c-.2.7-.3 8-.2 16.2l.3 15 8.8.3c5.5.2 8.7-.1 8.7-.8 0-.6-3-1-7.5-1H243v-13h7c9 0 9.2-1.8.3-2.2l-6.8-.3-.3-6.8-.3-6.7h7.6c4.3 0 7.5-.4 7.5-1 0-1.6-17-1.3-17.6.3zM366.8 390.2c-.2 2.5-.9 3.4-2.8 3.9l-2.5.6 2.8 1.1c2.7 1.1 2.7 1.3 2.7 10.1 0 7.9.2 9.2 1.9 10.1 2.5 1.3 6.1 1.3 6.1 0 0-.6-.8-1-1.8-1-3.4 0-4.2-2.1-4.2-10.7V396h3c1.7 0 3-.5 3-1 0-.6-1.3-1-3-1-2.8 0-3-.3-3-3.5 0-4.4-1.8-4.6-2.2-.3zM265.9 395.7c.5 1 2.1 3.3 3.5 5.2 1.4 1.9 2.6 3.9 2.6 4.4 0 .5-1.6 3.2-3.5 5.8-3.7 5.2-4 5.9-2.6 5.9.5 0 2.2-2 3.8-4.5 1.5-2.5 3.3-4.5 4-4.5.6 0 2.4 2 4 4.5 1.5 2.5 3.4 4.5 4.1 4.5.8 0-.4-2.4-2.7-5.6-2.2-3.1-3.8-6.2-3.4-6.8.3-.6 1.9-3 3.5-5.3 2.9-4.3 3.3-5.3 2.1-5.3-.5 0-2.1 2-3.6 4.5-1.6 2.5-3.3 4.5-3.7 4.5-.5 0-2.3-2-4.1-4.5-3.1-4.4-6-6.3-4-2.8zM289 410.5c0 14.6.2 16.5 1.6 16.5 1.5 0 1.6-.9 1-6.5-.5-5.2-.4-6.5.7-6.5.8 0 2 .7 2.7 1.5 1.9 2.3 9.2 1.9 12.3-.6 5.7-4.4 5.7-14.4 0-18.9-3-2.4-9.1-2.6-11.9-.5-2.5 1.9-4.4 1.9-4.4 0 0-.8-.4-1.5-1-1.5s-1 6.2-1 16.5zm17.2-12.7c2.7 2.5 3.1 3.6 3.1 7.7s-.4 5.2-3.1 7.7c-4.1 3.6-7.3 3.6-11.4-.1-2.8-2.5-3.3-3.6-3.3-7.6 0-4 .5-5.1 3.3-7.6 4.1-3.7 7.3-3.7 11.4-.1zM321.7 396c-5.7 4.5-5.7 14.5 0 18.9 3.7 3 10.4 2.8 14-.4 1.5-1.3 2.3-2.5 1.7-2.5-.6 0-1.7.7-2.4 1.5-1.7 2.1-7.4 2.9-10.1 1.4-3.3-1.7-4.8-3.9-4.9-7.2V405h9.5c5.9 0 9.5-.4 9.5-1 0-2.4-3-7.9-4.8-8.9-3.4-1.8-9.7-1.3-12.5.9zm12.4 1.9c4.6 4.7 3.2 6.1-6.2 6.1-6.9 0-7.9-.2-7.9-1.8.1-3.4 4.6-7.1 8.8-7.2 1.3 0 3.7 1.3 5.3 2.9zM346 405.5c0 7 .4 11.5 1 11.5s1-3.3 1-7.9c0-8.9 2.1-13.1 6.6-13.1 1.3 0 2.4-.5 2.4-1 0-1.7-3.6-1.1-6.4 1.1l-2.6 2v-2c0-1.2-.4-2.1-1-2.1s-1 4.5-1 11.5zM383.8 395.1c-1.9 1.1-2.4 5.4-.9 7.7.5.8 3.2 2.2 6.2 3.1 2.9 1 5.9 2.7 6.7 3.9 1.2 1.8 1.1 2.3-.7 4.1-2.7 2.7-7.1 2.7-10.5 0-3.3-2.6-4.5-1.8-1.7 1 3.2 3.2 11 2.9 14.2-.5 2.2-2.3 2.3-2.7.8-5.2-1-1.9-3.2-3.3-7.4-4.7-5.5-1.9-6-2.3-6-5 0-4.1 4.3-5.7 8.7-3.2 3.5 2 5.3 1.3 2.4-.9-2.3-1.6-9.3-1.8-11.8-.3zM133 402.8c0 1.2 1.9 2.6 2.6 1.9.2-.2-.2-1-1.1-1.7-.9-.8-1.5-.8-1.5-.2zM129 404.3c0 .8.7 1.4 1.5 1.4 1.1 0 1.2-.4.4-1.4-.6-.7-1.3-1.3-1.5-1.3-.2 0-.4.6-.4 1.3zM140.7 405.9c.3 1.2 1.1 1.7 1.9 1.4.8-.3 1.4-.6 1.2-.7-.2-.1-1.1-.7-2-1.4-1.4-1.1-1.6-1-1.1.7zM132.3 408.5c0 .8.4 1.2.9.9.5-.3.6-1 .3-1.5-.9-1.3-1.2-1.1-1.2.6zM134.5 409.9c-.3.5-.2 1.2.3 1.5.5.3.9-.1.9-.9 0-1.7-.3-1.9-1.2-.6zM139 417c-.9.6-1 1-.3 1 .6 0 1.5-.5 1.8-1 .8-1.2.4-1.2-1.5 0zM145 418c0 .6.7 1 1.5 1s1.5-.2 1.5-.4-.7-.6-1.5-1c-.8-.3-1.5-.1-1.5.4zM153.5 418c-.3.5-.1 1 .4 1 .6 0 1.1-.5 1.1-1 0-.6-.2-1-.4-1-.3 0-.8.4-1.1 1zM213 453c0 .5.5 1 1 1 .6 0 1-.5 1-1 0-.6-.4-1-1-1-.5 0-1 .4-1 1zM270.8 463.6c-.1 3.1 0 6.1.4 6.7.4.7.8-1.8.8-5.6 0-8.1-.7-8.8-1.2-1.1zM227.2 461c0 1.4.2 1.9.5 1.2.2-.6.2-1.8 0-2.5-.3-.6-.5-.1-.5 1.3zM237 465.3l.5 6.2.3-5.4c.2-3 0-5.8-.5-6.2-.4-.4-.6 2-.3 5.4zM300.1 460.6c0 1.1.3 1.4.6.6.3-.7.2-1.6-.1-1.9-.3-.4-.6.2-.5 1.3zM218.5 465c.3.5.8 1 1.1 1 .2 0 .4-.5.4-1 0-.6-.5-1-1.1-1-.5 0-.7.4-.4 1zM283.1 467.6c0 1.1.3 1.4.6.6.3-.7.2-1.6-.1-1.9-.3-.4-.6.2-.5 1.3zM254.1 468.6c0 1.1.3 1.4.6.6.3-.7.2-1.6-.1-1.9-.3-.4-.6.2-.5 1.3zM293.1 468.6c0 1.1.3 1.4.6.6.3-.7.2-1.6-.1-1.9-.3-.4-.6.2-.5 1.3z"/></svg>